HIERARCHY
ROOT hips
{
  OFFSET 0 9.313263304106702 1.2146308026317778
  CHANNELS 6 Xposition Yposition Zposition Yrotation Xrotation Zrotation
  JOINT spine
  {
    OFFSET -6.402521e-31 0.5173342420023708 0
    CHANNELS 3 Yrotation Xrotation Zrotation
    JOINT chest
    {
      OFFSET 0 1.130544299341115 0
      CHANNELS 3 Yrotation Xrotation Zrotation
      JOINT upperChest
      {
        OFFSET 0 1.0863555061129995 0
        CHANNELS 3 Yrotation Xrotation Zrotation
        JOINT neck
        {
          OFFSET 0 1.3773706506454462 0
          CHANNELS 3 Yrotation Xrotation Zrotation
          JOINT head
          {
            OFFSET 0 0.7374408940073979 0
            CHANNELS 3 Yrotation Xrotation Zrotation
            JOINT leftEye
            {
              OFFSET 0.25066580148932727 0.6408406698778757 0.15963719178883284
              CHANNELS 3 Yrotation Xrotation Zrotation
              End Site
              {
                OFFSET 0.25066580148932727 0.6408406698778757 0.15963719178883284
              }
            }
            JOINT rightEye
            {
              OFFSET -0.25066576739704244 0.6408406384191823 0.15963727561643756
              CHANNELS 3 Yrotation Xrotation Zrotation
              End Site
              {
                OFFSET -0.25066576739704244 0.6408406384191823 0.15963727561643756
              }
            }
          }
        }
        JOINT leftShoulder
        {
          OFFSET 0.3761817444281191 1.0539491987447769 0
          CHANNELS 3 Yrotation Xrotation Zrotation
          JOINT leftUpperArm
          {
            OFFSET 0.8702844380000002 0 0
            CHANNELS 3 Yrotation Xrotation Zrotation
            JOINT leftLowerArm
            {
              OFFSET 2.198527310000323 0 0
              CHANNELS 3 Yrotation Xrotation Zrotation
              JOINT leftHand
              {
                OFFSET 2.146852313968281 0 0
                CHANNELS 3 Yrotation Xrotation Zrotation
                JOINT leftIndexProximal
                {
                  OFFSET 0.6585177834681599 0.07380250427007962 0.18382213159631788
                  CHANNELS 3 Yrotation Xrotation Zrotation
                  JOINT leftIndexIntermediate
                  {
                    OFFSET 0.3323021288626682 -0.009606893929485771 -0.012820872253340998
                    CHANNELS 3 Yrotation Xrotation Zrotation
                    JOINT leftIndexDistal
                    {
                      OFFSET 0.2045908926985518 -0.0071133989147997845 -0.006828784783599051
                      CHANNELS 3 Yrotation Xrotation Zrotation
                      End Site
                      {
                        OFFSET 0.2045908926985518 -0.0071133989147997845 -0.006828784783599051
                      }
                    }
                  }
                }
                JOINT leftLittleProximal
                {
                  OFFSET 0.6110054258835662 0.07380246363125398 -0.29175655876064077
                  CHANNELS 3 Yrotation Xrotation Zrotation
                  JOINT leftLittleIntermediate
                  {
                    OFFSET 0.3144281999999998 -2.5124724523095665e-9 1.8658118799974588e-7
                    CHANNELS 3 Yrotation Xrotation Zrotation
                    JOINT leftLittleDistal
                    {
                      OFFSET 0.18116185580251631 0.002815456192251098 0.0034826415518049436
                      CHANNELS 3 Yrotation Xrotation Zrotation
                      End Site
                      {
                        OFFSET 0.18116185580251631 0.002815456192251098 0.0034826415518049436
                      }
                    }
                  }
                }
                JOINT leftMiddleProximal
                {
                  OFFSET 0.6637478005691111 0.07380246480054087 0.02046981859247815
                  CHANNELS 3 Yrotation Xrotation Zrotation
                  JOINT leftMiddleIntermediate
                  {
                    OFFSET 0.3705733999999994 -2.9611069152224445e-9 9.35054791928458e-8
                    CHANNELS 3 Yrotation Xrotation Zrotation
                    JOINT leftMiddleDistal
                    {
                      OFFSET 0.22861063500000056 -1.82673876025774e-9 -1.6740782024515788e-7
                      CHANNELS 3 Yrotation Xrotation Zrotation
                      End Site
                      {
                        OFFSET 0.22861063500000056 -1.82673876025774e-9 -1.6740782024515788e-7
                      }
                    }
                  }
                }
                JOINT leftRingProximal
                {
                  OFFSET 0.6561845547265777 0.07380246406440083 -0.13588087571513918
                  CHANNELS 3 Yrotation Xrotation Zrotation
                  JOINT leftRingIntermediate
                  {
                    OFFSET 0.3437531000000005 -2.746796123886952e-9 1.4935781944558357e-7
                    CHANNELS 3 Yrotation Xrotation Zrotation
                    JOINT leftRingDistal
                    {
                      OFFSET 0.1983118991198174 -0.002467117924596085 -0.004538141969590015
                      CHANNELS 3 Yrotation Xrotation Zrotation
                      End Site
                      {
                        OFFSET 0.1983118991198174 -0.002467117924596085 -0.004538141969590015
                      }
                    }
                  }
                }
                JOINT leftThumbProximal
                {
                  OFFSET 0.09767004258864787 -0.14930060425447422 -0.07008212897521154
                  CHANNELS 3 Yrotation Xrotation Zrotation
                  JOINT leftThumbIntermediate
                  {
                    OFFSET 0.36682123028154767 -0.015768465060082004 0.28693641268151077
                    CHANNELS 3 Yrotation Xrotation Zrotation
                    JOINT leftThumbDistal
                    {
                      OFFSET 0.21091084272403915 -0.016756648201192714 0.1933767059105508
                      CHANNELS 3 Yrotation Xrotation Zrotation
                      End Site
                      {
                        OFFSET 0.21091084272403915 -0.016756648201192714 0.1933767059105508
                      }
                    }
                  }
                }
              }
            }
          }
        }
        JOINT rightShoulder
        {
          OFFSET -0.37618174442811925 1.0539491987447769 0
          CHANNELS 3 Yrotation Xrotation Zrotation
          JOINT rightUpperArm
          {
            OFFSET -0.870284438 0 0
            CHANNELS 3 Yrotation Xrotation Zrotation
            JOINT rightLowerArm
            {
              OFFSET -2.1985273100003235 0 0
              CHANNELS 3 Yrotation Xrotation Zrotation
              JOINT rightHand
              {
                OFFSET -2.1468523139682802 0 0
                CHANNELS 3 Yrotation Xrotation Zrotation
                JOINT rightIndexProximal
                {
                  OFFSET -0.6585177834681599 0.07380250427007962 0.18382213159631788
                  CHANNELS 3 Yrotation Xrotation Zrotation
                  JOINT rightIndexIntermediate
                  {
                    OFFSET -0.3323021288626682 -0.009606893929485771 -0.012820872253340998
                    CHANNELS 3 Yrotation Xrotation Zrotation
                    JOINT rightIndexDistal
                    {
                      OFFSET -0.2045908926985518 -0.0071133989147997845 -0.006828784783599051
                      CHANNELS 3 Yrotation Xrotation Zrotation
                      End Site
                      {
                        OFFSET -0.2045908926985518 -0.0071133989147997845 -0.006828784783599051
                      }
                    }
                  }
                }
                JOINT rightLittleProximal
                {
                  OFFSET -0.6110054258835662 0.07380246363125398 -0.29175655876064077
                  CHANNELS 3 Yrotation Xrotation Zrotation
                  JOINT rightLittleIntermediate
                  {
                    OFFSET -0.3144281999999998 -2.5124724523095665e-9 1.8658118799974588e-7
                    CHANNELS 3 Yrotation Xrotation Zrotation
                    JOINT rightLittleDistal
                    {
                      OFFSET -0.18116185580251631 0.002815456192251098 0.0034826415518049436
                      CHANNELS 3 Yrotation Xrotation Zrotation
                      End Site
                      {
                        OFFSET -0.18116185580251631 0.002815456192251098 0.0034826415518049436
                      }
                    }
                  }
                }
                JOINT rightMiddleProximal
                {
                  OFFSET -0.6637478005691111 0.07380246480054087 0.02046981859247815
                  CHANNELS 3 Yrotation Xrotation Zrotation
                  JOINT rightMiddleIntermediate
                  {
                    OFFSET -0.3705733999999994 -2.9611069152224445e-9 9.35054791928458e-8
                    CHANNELS 3 Yrotation Xrotation Zrotation
                    JOINT rightMiddleDistal
                    {
                      OFFSET -0.22861063500000056 -1.82673876025774e-9 -1.6740782024515788e-7
                      CHANNELS 3 Yrotation Xrotation Zrotation
                      End Site
                      {
                        OFFSET -0.22861063500000056 -1.82673876025774e-9 -1.6740782024515788e-7
                      }
                    }
                  }
                }
                JOINT rightRingProximal
                {
                  OFFSET -0.6561845547265777 0.07380246406440083 -0.13588087571513918
                  CHANNELS 3 Yrotation Xrotation Zrotation
                  JOINT rightRingIntermediate
                  {
                    OFFSET -0.3437531000000005 -2.746796123886952e-9 1.4935781944558357e-7
                    CHANNELS 3 Yrotation Xrotation Zrotation
                    JOINT rightRingDistal
                    {
                      OFFSET -0.1983118991198174 -0.002467117924596085 -0.004538141969590015
                      CHANNELS 3 Yrotation Xrotation Zrotation
                      End Site
                      {
                        OFFSET -0.1983118991198174 -0.002467117924596085 -0.004538141969590015
                      }
                    }
                  }
                }
                JOINT rightThumbProximal
                {
                  OFFSET -0.09767004258864787 -0.14930060425447422 -0.07008212897521154
                  CHANNELS 3 Yrotation Xrotation Zrotation
                  JOINT rightThumbIntermediate
                  {
                    OFFSET -0.36682123028154767 -0.015768465060082004 0.28693641268151077
                    CHANNELS 3 Yrotation Xrotation Zrotation
                    JOINT rightThumbDistal
                    {
                      OFFSET -0.21091084272403915 -0.016756648201192714 0.1933767059105508
                      CHANNELS 3 Yrotation Xrotation Zrotation
                      End Site
                      {
                        OFFSET -0.21091084272403915 -0.016756648201192714 0.1933767059105508
                      }
                    }
                  }
                }
              }
            }
          }
        }
      }
    }
  }
  JOINT leftUpperLeg
  {
    OFFSET 0.7715603 -0.3993844658041501 0
    CHANNELS 3 Yrotation Xrotation Zrotation
    JOINT leftLowerLeg
    {
      OFFSET 0 -3.529830000249343 0
      CHANNELS 3 Yrotation Xrotation Zrotation
      JOINT leftFoot
      {
        OFFSET 0 -4.154939295409685 0.004208579085223096
        CHANNELS 3 Yrotation Xrotation Zrotation
        JOINT leftToes
        {
          OFFSET 0 -0.6353414391261847 1.10414981190622
          CHANNELS 3 Yrotation Xrotation Zrotation
          End Site
          {
            OFFSET 0 -0.6015820691747853 1.10414981190622
          }
        }
      }
    }
  }
  JOINT rightUpperLeg
  {
    OFFSET -0.7715603 -0.3993844658041501 0
    CHANNELS 3 Yrotation Xrotation Zrotation
    JOINT rightLowerLeg
    {
      OFFSET 0 -3.529830000249343 0
      CHANNELS 3 Yrotation Xrotation Zrotation
      JOINT rightFoot
      {
        OFFSET 0 -4.154939295409685 0.004208579085223096
        CHANNELS 3 Yrotation Xrotation Zrotation
        JOINT rightToes
        {
          OFFSET 0 -0.6353414391261847 1.10414981190622
          CHANNELS 3 Yrotation Xrotation Zrotation
          End Site
          {
            OFFSET 0 -0.6015820691747853 1.10414981190622
          }
        }
      }
    }
  }
}
MOTION
Frames: 4
Frame Time: 0.03333333333333333
-0.13629678975452078 9.443486820567736 1.0715757266828891 2.1515329777809122 -9.626219468143116 -0.9552425087953776 0.10763411056449314 3.2512352033193963 0.3058508586457189 0.07829468867860265 6.0982809192678 0.8900568848364986 0 0 0 -0.8209322698085505 -0.9825119533142163 4.652118999123043 -0.4996233561562025 2.759126754571134 -3.5612370646995686 0 0 0 0 0 0 -2.420706291490077 -0.45015561221129036 -9.863360736548389 -33.32576335785014 22.72052817588542 -68.95392634572207 -17.835123909559496 -12.446864001029029 5.757165928770638 1.1089990864065666 0.38160402275374333 -11.51447447663953 -8.592518884841013 4.621243007171587 -10.308552617711648 4.598779871386343 0.02745916744596841 0.8843040960014604 0.7749646025274102 -0.20654995691655695 1.8799434939787332 -8.390799825183116 -3.202562727242648 -14.685838286390675 5.772091119818974 -1.8741611630369792 -2.5047726875567724 3.829282183941694 -0.266448240724421 5.1674329742092855 -8.85357352579062 2.75637270638614 -16.17818973143001 3.886479036746997 -0.6961219384109989 1.2885793382878323 1.684831365379179 -0.6971495843132854 4.896482221662889 -3.9586000663300713 -2.2304657671369656 -17.044492644829138 4.777602793463206 -2.3734644901725765 2.2431093457040285 2.2911251354176394 -0.9061885177419912 4.735805043889246 -1.0829282546226975 0.9002780688759459 4.695105823178425 -0.9412670392685132 0.10777982167744878 -0.15770207335562092 -4.9546246247935395 -0.9074463905851279 3.4679524367334054 3.1178184016123502 -0.5293007118837153 15.381044200242481 16.842778950545956 15.699768948631482 65.50465773916028 20.311522760595306 -4.681620954819106 -4.572047163603658 -22.686617233358373 -4.4154504839142374 14.189958567983956 3.265883221819743 4.634652125290525 6.709094590516904 -0.26652677951666076 -0.26754697929568183 -0.832132243785977 0.32588456878875466 0.4061267157000421 1.877635285062167 8.633199723858414 3.1922473843068304 8.487099464549924 -4.036767719811048 -2.5259395077334887 2.4306610591975897 -3.114721564108198 -0.8678065789235522 -6.017678073678985 4.450518532933587 4.063209131574393 11.686623174560737 -0.5326655596869933 -1.358749522644471 -1.3165369855512798 0.04191849252618565 0.11371538721881853 0.45442066040116197 5.402299545253694 3.532924046815803 13.783264220968755 -2.542874222259642 -3.6146769022693297 -2.3356878086874495 -0.19159673391187115 -0.10039251299801119 -0.3600367609998526 -0.8353970734743176 5.0716992970443435 -2.6451227571718112 -5.508808113634893 4.322674923304652 4.034895610134264 -2.8017458131936253 0.5419326315113719 1.4380475702856321 1.4347515498475725 10.717823324071961 7.418746978742587 0.16394573962005915 5.053102427228957 0.007100549935727623 5.320468822495479 -7.019820216320526 -8.260947278895769 -0.4032720152510262 1.7279547560801216 0.18791673401806544 -2.153140204878971 13.755033678798572 -2.4307986708945246 -0.06393558376449586 -0.20037071784861632 0.13594745809993763 -3.7937138447177303 -5.143224300604881 4.687845384898196 0.14647259421959438 0.8132070534475686 0.022955606768745262
-0.13730500232089649 9.443432201038705 1.0714595789046382 2.14197428445081 -9.638395180720378 -0.9583349408344182 0.110534017647887 3.257129128514426 0.3054736059987914 0.08156351150244853 6.105035394651847 0.8892193161281503 0 0 0 -0.8222002902358139 -1.0077669720419185 4.649042641853847 -0.5087175243817222 2.814392208438282 -3.5456339173167253 0 0 0 0 0 0 -2.4166369061338777 -0.44912640974917095 -9.869079255053203 -33.29465577622736 22.711707487789973 -68.96143228737029 -17.821091349120834 -12.427495835348845 5.754662046562218 1.0921999554703532 0.3825359640894365 -11.534260647115133 -8.570037550532007 4.622107703255017 -10.31311216820533 4.607482144399213 0.027734764610431194 0.8844413764933974 0.7752162166148527 -0.20780625302944275 1.8876792453920912 -8.372934023357777 -3.1864778236587425 -14.642416027484277 5.772016454456245 -1.8731931064737863 -2.5051819423027983 3.8108503957120763 -0.2641312609750072 5.142272173683157 -8.852533610492811 2.756359671257034 -16.174801453749684 3.8896756357776776 -0.6969164868588699 1.288331971737485 1.685585027792353 -0.6980604682264947 4.902492796596941 -3.9465185515417676 -2.2115906602600868 -16.976160319638083 4.808041680673083 -2.392542979939241 2.2416619121790355 2.2949730603002068 -0.9071645032175735 4.74673709188671 -1.062989374632184 0.9198624783275967 4.696700528266096 -0.9321348618508134 0.12575977179231015 -0.18495963666673867 -4.943464539360135 -0.90340177325861 3.4611729485895135 3.1214641921663415 -0.5295183267313321 15.38339482122243 16.850359940270895 15.705356242405188 65.51929783033803 20.319876715388272 -4.682435183719644 -4.573800398251868 -22.695610527182467 -4.416736242249888 14.172702458180428 3.25775317941367 4.60940461433653 6.663990832155496 -0.26142481683764957 -0.26512586452038933 -0.8325184368077911 0.326293976351011 0.40633712283147766 1.8782138787249174 8.623942062197413 3.1893947730025296 8.495707839618946 -4.027180268685422 -2.5182944564429177 2.428993567085347 -3.1127112219680915 -0.8671353825502448 -6.013753766554311 4.439973925017495 4.049526002101242 11.63857564436557 -0.5329152551046281 -1.3567940453893295 -1.316828999587402 0.045352618112009795 0.1169392163577805 0.4670793362454945 5.403984154695612 3.531213249818149 13.764608459272544 -2.5351282297437976 -3.600704528093305 -2.336605909900203 -0.18595253090983752 -0.0941461225748638 -0.3389034508122462 -0.8361518443986282 5.081100789744402 -2.636979819077818 -5.517549015440623 4.33841734995314 4.049444236465805 -2.811183423665643 0.5413517726728891 1.4441847937281698 1.4220008020716142 10.728296744811097 7.423409487812585 0.16340257881745487 5.055987876929549 0.007969030744445412 5.34334115951557 -7.020903667098265 -8.265222518275442 -0.40633159601795904 1.740958563941112 0.187938080044474 -2.145078183685401 13.812059305601087 -2.4207996450708267 -0.06451844868190844 -0.2530347319101192 0.13549889100804055 -3.7915461824759515 -5.141018664308032 4.687843655407737 0.14641460027639253 0.8174138620294193 0.022868445906910385
-0.13962683352557095 9.443314292214133 1.0706552819559452 2.127179765174653 -9.66892732399133 -0.9614069632449821 0.11022139045370419 3.2780915493156932 0.3096012518182543 0.08247548518674203 6.127285023894615 0.8913360441225039 0 0 0 -0.8224729949646248 -1.058098172082584 4.630312078065646 -0.52497934768729 2.8937428206917772 -3.5079528120089813 0 0 0 0 0 0 -2.398393433506053 -0.4445767250641868 -9.88104951240356 -33.28062879375766 22.698173047997756 -68.9750922234105 -17.787064157984428 -12.414638436464058 5.7430755455622045 1.0970072934663684 0.3770231599514834 -11.521699044919208 -8.543827818577874 4.623465351042232 -10.339965704278644 4.590986285949642 0.026387474628283683 0.885194473358055 0.7668997497504859 -0.20727222745054752 1.8829868063902773 -8.361647006374286 -3.1809800005277555 -14.618092914221345 5.755156435107767 -1.8656233625020517 -2.5069088172348457 3.826599690184449 -0.26683164260416686 5.156718055071315 -8.825070079939644 2.753645375843324 -16.110204168518194 3.9120697110300027 -0.7037339518039812 1.2846177547814506 1.694962704722096 -0.7051095384705258 4.956120503566417 -3.9306524277476607 -2.220398372649756 -16.948155031129673 4.796195926141515 -2.385215716522245 2.243959765444879 2.2917134412022016 -0.9063681528442192 4.747453295564143 -1.0584746306630355 0.9071662109789164 4.679126895688586 -0.9457009654478973 0.11454812500096156 -0.16794073781831378 -4.944349922188311 -0.9030697207723517 3.46200046398648 3.1234323799636567 -0.528392258026517 15.380728319198283 16.930222477211345 15.768178624952299 65.56598035588807 20.396025711434334 -4.753369270198184 -4.591652725776862 -22.665918943954548 -4.42888190897794 14.073916903028849 3.2159758500244986 4.547652606763516 6.561131872478453 -0.239367861688631 -0.25177804494993267 -0.8351659744912976 0.32728055752149526 0.4084759332456672 1.8888059502299597 8.571725564785009 3.175929203322022 8.448583530578988 -4.002778401144929 -2.5013515006219182 2.424260491173095 -3.094874459206745 -0.8610832000225043 -5.979041019239128 4.391356628459044 3.983157126619429 11.407355343481989 -0.5351759814865454 -1.3473239127686882 -1.3177586212168302 0.05117055297539928 0.12629985163119165 0.475306662847247 5.328619164861465 3.484613629904073 13.526093889400615 -2.5394090779158556 -3.608538458438935 -2.3358484094541847 -0.18892401418536137 -0.09827691875393697 -0.3527602007304267 -0.8719469913447759 5.11340556621155 -2.6030614259140488 -5.548497969320172 4.39542625170222 4.1015388445854555 -2.8503625945789173 0.550074106432034 1.4638074154495961 1.4053904160505564 10.753788827809268 7.426628782871751 0.16232125672991665 5.064663159841538 0.009817838987081932 5.390439544835297 -7.02388736336696 -8.250864193061272 -0.411605998791045 1.7633463321904228 0.18785048646476193 -2.1413952412756827 13.930029933028694 -2.4161091324072212 -0.06549579028278801 -0.35307477649379587 0.13481954611302802 -3.7806185838215396 -5.139115205467649 4.7219767945031705 0.14622728932367432 0.8179090478068468 0.02283990434062228
-0.1412074945189736 9.443444338711824 1.070858669259731 2.125618866037725 -9.706367300670959 -0.9668598089555556 0.10908653735690947 3.2972516686206457 0.31759006587560323 0.08270132880467176 6.146430905870956 0.8965812859995292 0 0 0 -0.8245060335740764 -1.067593128309255 4.630922666542183 -0.5279924834655995 2.8762210282403355 -3.517383068269355 0 0 0 0 0 0 -2.388267478296372 -0.4417395236916733 -9.894479160752395 -33.26664011677248 22.67910641655034 -68.97083483087427 -17.742326321292996 -12.477649008750872 5.714968721521675 1.1326501744793436 0.37811153153844623 -11.548581839173988 -8.557945592133835 4.639234813620585 -10.373868956253903 4.557494253444006 0.024413679831170546 0.8861715517354797 0.7670772971080452 -0.20320783861097869 1.8610771057084856 -8.349399011280301 -3.1789688281355812 -14.593742197072014 5.749492322619144 -1.8671496522689408 -2.5072012399962773 3.8246784211663027 -0.27035034926768475 5.140592654619556 -8.805270076851732 2.7527258674708226 -16.076805864207223 3.8967193032867455 -0.7048885544501979 1.287386353649056 1.6982402774364265 -0.7052086370795225 4.956956374748208 -3.9419652391559317 -2.205669396675056 -16.883314019482157 4.7973475220827755 -2.385246051769413 2.2447072424877494 2.28404301109035 -0.9106005206718515 4.729202769357912 -1.0528128447792084 0.9133324087794844 4.676165927312621 -1.0099563913286893 0.12912001973304874 -0.1892647781929875 -4.975226214683137 -0.9146815428008049 3.480585967149129 3.122606169083102 -0.5257289585352124 15.390363774535661 17.04477600606577 15.822889960649727 65.59263381582976 20.418173868771166 -4.810588143924709 -4.5972965767965075 -22.65821789982166 -4.4264567844376925 14.092377105220669 3.212778364599755 4.62330817212741 6.72134504403622 -0.23330323511887768 -0.2423810313290052 -0.8366361543038269 0.3275823816124786 0.4090383175858387 1.8897367805685321 8.623155696888471 3.186516089192057 8.382832384855243 -4.008845005790862 -2.505331536180263 2.4245795185975694 -3.1206215067013647 -0.8703268351142788 -6.0278025013398295 4.431630692710161 3.989290533435002 11.436166966831879 -0.5391919327523725 -1.3693686736070032 -1.314545180397017 0.04033152929978629 0.1061385457043355 0.4035593009963108 5.342235520896477 3.4769749124906135 13.53432257898723 -2.5497603276855707 -3.6275886863022735 -2.334365796009881 -0.1993534805246251 -0.1112470094589078 -0.3963693891996003 -0.8860680896677688 5.086839380516698 -2.5895621661719903 -5.502172995402086 4.375396135380721 4.082570229787004 -2.792997995155785 0.5379076037493208 1.434739227655135 1.3544145647525765 10.802628242437308 7.420322560858204 0.1618276768976331 5.055448327285809 0.011880875902367914 5.473824472233807 -7.018598702788314 -8.20912248863294 -0.4184038086552538 1.792954732426834 0.187827794165801 -2.1300424454011777 13.923122195282996 -2.4019232208493424 -0.06268730743175241 -0.31588602995719645 0.1354812562660369 -3.7889681441502967 -5.1332805673526565 4.718586227326223 0.14598536795019934 0.8172127778772936 0.02283114318353915
